<?xml version="1.0" standalone="no"?>
<!DOCTYPE svg PUBLIC "-//W3C//DTD SVG 1.1//EN" "http://www.w3.org/Graphics/SVG/1.1/DTD/svg11.dtd" >
<svg xmlns="http://www.w3.org/2000/svg" xmlns:xlink="http://www.w3.org/1999/xlink" version="1.1">
<metadata></metadata>
<defs>
<font id="ots-derived-fontuploaded_file" horiz-adv-x="1271" >
<font-face units-per-em="2048" ascent="1638" descent="-410" />
<missing-glyph horiz-adv-x="573" />
<glyph horiz-adv-x="0" />
<glyph horiz-adv-x="682" />
<glyph unicode=" "  horiz-adv-x="573" />
<glyph unicode="&#x09;" horiz-adv-x="573" />
<glyph unicode="&#xa0;" horiz-adv-x="573" />
<glyph unicode="!" horiz-adv-x="528" d="M119 0v244h254v-244h-254zM152 410v1077h192v-1077h-192z" />
<glyph unicode="&#x22;" horiz-adv-x="991" d="M119 1145v448h188l2 -448h-190zM510 1145v448h188v-448h-188z" />
<glyph unicode="#" horiz-adv-x="1323" d="M-23 446l33 179h221l39 211h-221l33 180h221l43 239h189l-43 -239h178l43 239h188l-43 -239h219l-30 -180h-222l-39 -211h220l-31 -179h-221l-47 -249h-189l47 249h-178l-47 -249h-188l47 249h-222zM418 625h180l39 211h-178z" />
<glyph unicode="$" horiz-adv-x="1411" d="M10 317l195 52l26 -47q47 -86 142 -138q8 -4 18 -4h101v496l-283 76q-82 23 -129 94.5t-47 157.5v145q0 82 35 133q23 35 83 94.5t97 79.5q74 43 141 43h103v201h190v-201h82q154 0 305 -201q27 -33 68 -127l-197 -57l-27 51q-18 37 -63 79t-76 59q-8 4 -18 4h-74v-480 l289 -75q82 -23 132 -93.5t50 -154.5v-170q0 -82 -35 -131q-23 -35 -83 -93.5t-99 -78.5q-74 -43 -141 -43h-113v-211h-190v211h-107q-158 0 -307 200q-21 27 -68 129zM236 1014q0 -27 16 -50.5t39 -29.5l201 -53v426h-91q-4 0 -10 -4h-6q-33 -14 -91 -70.5t-58 -83.5v-135z M682 180h104q12 0 15 4q37 16 92 69.5t55 84.5v149q0 31 -17.5 55.5t-37.5 30.5l-211 54v-447z" />
<glyph unicode="%" horiz-adv-x="1800" d="M45 1028v176q0 72 37 127q12 18 53 59.5t66 61.5q68 47 151 47h51q88 0 154 -47q25 -20 66 -61t53 -60q37 -55 37 -127v-176q0 -74 -37 -129l-22 -34q-17 -28 -33.5 -50t-30.5 -33q-59 -43 -187 -43h-51q-90 0 -151 43q-23 18 -64 56.5t-55 60.5q-37 55 -37 129z M223 1026q0 -27 37 -62.5t70 -54.5q2 -2 24 -2h49q23 0 25 2q23 12 63.5 47t43.5 52v18v182q0 20 -3 23q-27 53 -104 94q-4 6 -25 6h-49q-20 0 -24 -6q-25 -14 -58.5 -43t-44.5 -51q-4 -8 -4 -23v-182zM250 0l819 1499h217l-782 -1499h-254zM838 293v176q0 72 39 125 q37 57 116 119q68 47 154 47h53q84 0 150 -47q66 -43 120 -119q37 -53 37 -125v-176q0 -72 -37 -127q-55 -74 -120 -119q-66 -47 -150 -47h-53q-86 0 -154 47q-80 61 -116 119q-39 55 -39 127zM1016 287q0 -18 2 -23q25 -49 106 -94q6 -4 25 -4h47q29 0 71 36t56 62 q6 10 6 23v184q0 12 -6 23q-14 27 -56 62.5t-71 35.5h-47q-27 0 -71 -36t-60 -62q-2 -2 -2 -23v-184z" />
<glyph unicode="&#x26;" horiz-adv-x="1394" d="M20 311v217q0 49 18.5 91.5t38 66t64.5 66.5q-63 59 -92 106t-29 119v194q0 80 41 146q16 20 60.5 64t71.5 63q76 55 163 55h185q147 0 305 -203q39 -57 72 -129l-199 -53l-25 51q-20 37 -63 79t-76 59q-12 4 -23 4h-174q-29 0 -71.5 -40t-59.5 -73q-4 -4 -4 -27v-186 q0 -23 4 -27q16 -31 59.5 -69.5t71.5 -38.5h295v-193h-295q-29 0 -71.5 -37.5t-59.5 -68.5q-4 -4 -4 -25v-205q0 -20 4 -24q16 -31 59.5 -70t71.5 -39h349q33 0 73.5 38t59.5 71q6 4 6 24v375h276v-198h-73v-183q0 -76 -43 -137q-14 -23 -59.5 -69t-72.5 -62 q-72 -53 -167 -53h-351q-92 0 -163 53q-25 16 -70 62.5t-62 68.5q-41 61 -41 137z" />
<glyph unicode="'" horiz-adv-x="585" d="M117 1145l2 446h188v-446h-190z" />
<glyph unicode="(" horiz-adv-x="864" d="M20 346v791q0 78 37 133q51 74 179 192q39 39 95 90.5t66 61.5l144 -141q-2 -2 -28 -25l-63 -58l-73 -69q-154 -143 -154 -188v-781q0 -35 154 -184q123 -119 166 -154l-146 -141l-25 25l-60 55q-38 35 -68 67q-152 145 -187 195q-37 55 -37 131z" />
<glyph unicode=")" horiz-adv-x="870" d="M106 14q43 35 166 154q154 150 154 184v781q0 39 -152 186q-35 31 -72.5 67.5t-64 60t-28.5 26.5l141 141l164 -152q133 -129 178 -192q37 -55 37 -133v-791q0 -76 -37 -131q-45 -63 -182 -195l-70 -65l-60 -55q-24 -20 -30 -27z" />
<glyph unicode="*" horiz-adv-x="1146" d="M-23 889l273 258v20l-273 263l179 49l223 -205v258h168v-260l227 207l180 -49l-278 -263v-20l276 -258l-178 -51l-227 215v-265h-168v265l-221 -215z" />
<glyph unicode="+" d="M59 528v181h369v344h195v-344h368v-181h-368v-348h-195v348h-369z" />
<glyph unicode="," horiz-adv-x="712" d="M-2 -215l199 424l188 -59l-170 -365h-217z" />
<glyph unicode="-" horiz-adv-x="802" d="M20 526v181h515v-181h-515z" />
<glyph unicode="." horiz-adv-x="708" d="M102 0v256h252v-256h-252z" />
<glyph unicode="/" horiz-adv-x="1069" d="M-123 0l815 1499h221l-811 -1499h-225z" />
<glyph unicode="0" d="M20 311v865q0 76 41 141q16 20 61.5 65t70.5 66q72 51 163 51h336q94 0 166 -51q25 -20 71 -65.5t60 -65.5q41 -66 41 -141v-865q0 -76 -41 -137q-14 -23 -60 -69t-71 -62q-72 -53 -166 -53h-336q-92 0 -163 53q-25 16 -70 62.5t-62 68.5q-41 61 -41 137zM223 317 q0 -23 2 -24q20 -33 61.5 -71t71.5 -38h330q33 0 74 38t61 71q4 4 4 24v852q0 23 -4 27q-20 33 -61 72t-74 39h-330q-31 0 -71.5 -39t-61.5 -72q-2 -2 -2 -27v-852z" />
<glyph unicode="1" d="M203 1294v193h463v-1487h-203v1294h-260z" />
<glyph unicode="2" d="M10 1171q35 82 68 127q150 201 307 201h279q94 0 165 -51q29 -20 73 -65.5t59 -65.5q43 -66 43 -141v-170q0 -82 -49.5 -147.5t-125.5 -102.5l-518 -269q-61 -31 -61 -84v-210h733v-193h-936v414q0 160 176 248l522 268q55 29 56 84v155q0 23 -6 27q-18 33 -59.5 72 t-73.5 39h-271l-22 -4q-31 -16 -75 -58.5t-63 -79.5l-26 -51z" />
<glyph unicode="3" d="M10 311l199 54l24 -46q23 -41 66 -85t74 -56q8 -2 18 -2h273q33 0 72.5 37t58.5 72q6 6 6 24v211q0 20 -6 25q-14 33 -56.5 70.5t-72.5 37.5h-273v193h271q23 0 28 4q63 33 103 102q6 4 6 27v190q0 23 -6 27q-39 70 -103 107q-4 4 -28 4h-273l-18 -4q-33 -16 -77 -57.5 t-63 -78.5q-8 -10 -24 -49l-199 51q47 100 70 129q82 111 164 162q63 39 141 39h281q92 0 163 -51q25 -18 71 -65.5t61 -69.5q43 -63 43 -137v-201q0 -51 -18.5 -93t-38 -65.5t-64.5 -64.5l63 -68q23 -25 40.5 -67t17.5 -91v-219q0 -76 -43 -141q-14 -23 -58.5 -67 t-73.5 -64q-72 -51 -163 -51h-281q-158 0 -305 196q-20 25 -70 131z" />
<glyph unicode="4" d="M10 322v172l637 993h262v-971h164v-194h-164v-322h-202v322h-697zM256 516h451v711z" />
<glyph unicode="5" d="M10 317l199 52l24 -47q18 -39 63.5 -81t76.5 -57q12 -4 20 -4h279q14 0 28 6q29 14 60 45t45 60q6 4 6 24v271q0 20 -6 26q-14 27 -45 57.5t-60 47.5q-14 4 -28 4h-580v766h844v-193h-641v-383h379q94 0 166 -51q29 -20 72.5 -63t58.5 -66q43 -66 43 -141v-279 q0 -76 -43 -141q-14 -20 -58.5 -65.5t-72.5 -65.5q-72 -51 -166 -51h-287q-156 0 -307 198q-21 25 -70 131z" />
<glyph unicode="6" d="M20 309v867q0 76 41 141q16 20 61.5 65t70.5 66q72 51 163 51h283q78 0 141 -39q82 -51 164 -162q23 -29 70 -129l-199 -51l-24 49q-20 37 -63.5 78t-76.5 58q-12 4 -22 4h-271q-18 0 -26 -7q-25 -14 -56.5 -44.5t-48.5 -59.5q-4 -4 -4 -27v-311q86 78 187 78h256 q94 0 163 -49q29 -18 73 -62.5t59 -66.5q43 -63 43 -142v-307q0 -76 -43 -141q-14 -23 -58.5 -68t-73.5 -63q-72 -51 -163 -51h-310q-92 0 -163 51q-25 18 -70 63t-62 68q-41 65 -41 141zM223 311q0 -18 4 -24q16 -29 59.5 -69t71.5 -40h306q33 0 72.5 37t58.5 72q6 6 6 24 v303q0 20 -6 25q-16 35 -57.5 74t-73.5 39h-248l-19 -4q-137 -68 -174 -148v-289z" />
<glyph unicode="7" d="M10 1294v193h985v-166l-649 -1321h-223l643 1294h-756z" />
<glyph unicode="8" d="M20 309v217q0 49 17.5 91t39 67t64.5 68q-43 41 -64.5 65.5t-39 67.5t-17.5 92v199q0 76 41 141q16 20 61.5 65t70.5 66q72 51 163 51h310q92 0 163 -51q29 -20 73 -65.5t59 -65.5q43 -66 43 -141v-199q0 -49 -17.5 -92t-40 -67.5t-63.5 -65.5l63 -68q23 -25 40.5 -67 t17.5 -91v-217q0 -76 -43 -141q-14 -23 -58.5 -68t-73.5 -63q-72 -51 -163 -51h-310q-92 0 -163 51q-25 18 -70 63t-62 68q-41 65 -41 141zM223 311q0 -18 4 -24q20 -35 60.5 -72t70.5 -37h306q31 0 73.5 40t57.5 69q6 6 6 24v211q0 18 -6 23q-14 31 -57.5 69.5t-73.5 38.5 h-306q-31 0 -70.5 -36.5t-60.5 -71.5q-4 -4 -4 -23v-211zM223 981q0 -23 4 -27q16 -27 55.5 -66.5t61.5 -41.5h14h306q31 0 73.5 39t57.5 69q6 4 6 27v188q0 23 -6 27q-14 33 -57.5 72t-73.5 39h-306q-31 0 -71.5 -38t-59.5 -73q-4 -4 -4 -27v-188z" />
<glyph unicode="9" d="M10 315l199 52l24 -50q18 -37 63.5 -77.5t78.5 -59.5q12 -2 22 -2h267q25 0 30 2q63 37 105 107q4 6 4 28v324q-94 -82 -187 -82h-258q-98 0 -165 49q-88 66 -132 127q-41 66 -41 144v299q0 76 41 141q16 20 61.5 65t70.5 66q72 51 165 51h308q94 0 168 -51 q25 -20 69.5 -65.5t61.5 -65.5q41 -66 41 -141v-867q0 -76 -41 -141q-16 -23 -61.5 -68t-69.5 -63q-74 -51 -168 -51h-279q-78 0 -141 39q-82 49 -164 161q-39 57 -72 129zM223 881q0 -20 4 -27q41 -68 105 -106q14 -4 30 -5h248l17 2q49 25 104 69t72 81v276q0 20 -4 25 q-20 33 -61.5 72t-73.5 39h-302q-16 0 -30 -7q-25 -14 -56.5 -44.5t-48.5 -59.5q-4 -4 -4 -25v-290z" />
<glyph unicode=":" horiz-adv-x="669" d="M84 0v262h254v-262h-254zM84 664v264h254v-264h-254z" />
<glyph unicode=";" horiz-adv-x="704" d="M-2 -215l199 459l188 -64l-170 -395h-217zM106 662v272h252v-272h-252z" />
<glyph unicode="&#x3c;" horiz-adv-x="1775" d="M-68 745l777 750h262l-690 -655h1253v-187h-1247l684 -653h-262z" />
<glyph unicode="=" horiz-adv-x="1204" d="M25 358v168h911v-168h-911zM25 694v168h911v-168h-911z" />
<glyph unicode="&#x3e;" horiz-adv-x="1775" d="M-31 653v187h1256l-693 655h263l776 -750l-776 -745h-263l685 653h-1248z" />
<glyph unicode="?" horiz-adv-x="1148" d="M-20 1171q35 82 67 127q152 201 307 201h281q94 0 166 -51q27 -20 72 -65.5t59 -65.5q43 -66 43 -141v-170q0 -82 -49 -147.5t-123 -102.5l-164 -82q-63 -29 -64 -86v-185h-202v195q0 47 16 88t36.5 67.5t67.5 56.5l69 44q24 14 81 41t74 35q53 29 53 84v155q0 23 -4 27 q-20 33 -61 72t-72 39h-271l-22 -4q-33 -16 -76 -58.5t-63 -79.5l-25 -51zM350 0v238h248v-238h-248z" />
<glyph unicode="@" horiz-adv-x="1366" d="M20 338v811q0 86 31 133q23 35 84.5 94.5t97.5 79.5q74 43 142 43h373q166 0 321 -217q37 -55 37 -133v-555l29 -201h-181l-14 64q-6 -6 -18.5 -19.5t-14.5 -15.5q-45 -41 -82 -41h-153q-113 0 -180 53q-27 16 -65 56t-52 63q-41 61 -41 139v76q0 78 41 139q14 23 52 62 t65 57q66 49 172 49h249v74q0 18 -2 20q-23 35 -73 82t-78 62l-6 4q-6 2 -11 2h-356q-6 0 -10 -2l-8 -4q-27 -14 -80 -63.5t-76 -84.5q-2 -4 -2 -20v-805q0 -31 61.5 -90.5t96.5 -75.5l8 -4q4 -2 10 -2h588l29 -178h-629q-68 0 -142 43q-37 23 -96 80t-82 92q-35 51 -35 133 zM526 696q0 -25 2 -26q35 -63 105 -103q6 -4 28 -4h121q6 0 13 2l8 2q47 25 110 92v236h-251q-23 0 -29 -6q-27 -14 -66 -51t-41 -58v-16v-68z" />
<glyph unicode="A" horiz-adv-x="1400" d="M-98 0l516 1487h268l518 -1487h-217l-113 332h-643l-114 -332h-215zM295 522h516l-258 756z" />
<glyph unicode="B" horiz-adv-x="1359" d="M43 0v1487h698q92 0 166 -55q27 -18 72 -62.5t59 -66.5q39 -55 39 -144v-190q0 -74 -26.5 -120t-92.5 -106q66 -59 92.5 -105t26.5 -120v-196q0 -76 -39 -138q-14 -23 -60 -68.5t-71 -64.5q-72 -51 -166 -51h-698zM246 193h493q31 0 71 37.5t60 72.5q4 4 4 25v188 q0 18 -4 25q-43 72 -104 104q-2 2 -25 2h-495v-454zM246 838h495q29 0 71 37.5t58 70.5q4 6 4 29v182q0 20 -4 25q-20 35 -60 73.5t-71 38.5h-493v-456z" />
<glyph unicode="C" horiz-adv-x="1339" d="M43 334v819q0 74 37 129q25 35 84 95.5t94 78.5q74 43 141 43h330q154 0 305 -201q27 -33 68 -127l-197 -57q-41 113 -164 189q-10 4 -20 4h-309q-6 0 -11 -4h-8q-27 -14 -74 -58.5t-69 -79.5q-2 -6 -2 -75v-752q0 -31 54 -84t91 -70h8q4 -4 11 -4h309l20 4 q45 25 94.5 78t69.5 107l197 -52q-31 -80 -68 -129q-161 -200 -304 -200h-1h-328q-70 0 -143 43q-37 20 -96.5 78.5t-81.5 93.5q-37 55 -37 131z" />
<glyph unicode="D" horiz-adv-x="1378" d="M43 0v1487h684q76 0 141 -39q33 -20 93.5 -80.5t85.5 -97.5q35 -51 34 -129v-797q0 -80 -34 -129q-23 -35 -82.5 -93.5t-96.5 -78.5q-76 -43 -141 -43h-684zM246 193h467h10l8 4q37 16 91.5 69t54.5 84v785q0 18 -3 20q-23 35 -68.5 79t-74.5 56l-8 4h-10h-467v-1101z " />
<glyph unicode="E" horiz-adv-x="1265" d="M43 0v1487h911v-193h-708v-454h667v-193h-667v-454h708v-193h-911z" />
<glyph unicode="F" horiz-adv-x="1210" d="M43 0v1487h909v-193h-706v-454h667v-193h-667v-647h-203z" />
<glyph unicode="G" horiz-adv-x="1466" d="M43 334v815q0 78 37 133q25 35 84 95.5t94 78.5q74 43 143 43h381q152 0 308 -203q31 -37 69 -125l-198 -57l-25 51q-18 37 -63.5 79t-77.5 59q-8 4 -19 4h-364q-6 0 -11 -4h-8q-27 -14 -76 -58.5t-69 -79.5q-2 -4 -2 -20v-807q0 -31 55 -84t92 -70h8q8 -4 13 -4h356 q6 0 12 4h6q35 16 93.5 73.5t58.5 86.5v307h-340v195h543v-500q0 -86 41 -346h-197q-4 16 -11 48t-7 38q-8 -4 -29.5 -23.5t-34 -28.5t-34 -22.5t-43 -18.5t-46.5 -5h-381q-70 0 -143 43q-37 20 -96.5 78.5t-81.5 93.5q-37 55 -37 131z" />
<glyph unicode="H" horiz-adv-x="1398" d="M43 0v1487h203v-647h639v647h202v-1487h-202v647h-639v-647h-203z" />
<glyph unicode="I" horiz-adv-x="550" d="M43 0v1487h203v-1487h-203z" />
<glyph unicode="J" horiz-adv-x="1157" d="M-63 317l194 52q20 -53 69.5 -106.5t94.5 -78.5q12 -4 22 -4h175q12 0 14 4q33 14 92 70.5t59 83.5v1149h203v-1153q0 -76 -37 -131q-25 -35 -83 -94.5t-93 -77.5q-74 -43 -143 -43h-195q-156 0 -305 200q-28 43 -67 129z" />
<glyph unicode="K" horiz-adv-x="1280" d="M43 0v1487h203v-637l602 637h266l-704 -744l708 -743h-268l-604 635v-635h-203z" />
<glyph unicode="L" horiz-adv-x="1175" d="M43 0v1487h203v-1294h694v-193h-897z" />
<glyph unicode="M" horiz-adv-x="1658" d="M43 0v1487h256l397 -811l400 811h252v-1487h-199v1182l-389 -797h-133l-383 797v-1182h-201z" />
<glyph unicode="N" horiz-adv-x="1413" d="M43 0v1487h240l618 -1147v1147h201v-1487h-234l-624 1135v-1135h-201z" />
<glyph unicode="O" horiz-adv-x="1433" d="M45 334v815q0 82 35 133q23 35 83 94.5t97 79.5q74 43 141 43h392q70 0 143 -43q35 -18 94.5 -78.5t83.5 -95.5q39 -55 39 -133v-815q0 -76 -39 -131q-20 -35 -79.5 -93.5t-98.5 -78.5q-74 -43 -143 -43h-392q-68 0 -141 43q-37 20 -97.5 78.5t-82.5 93.5q-35 49 -35 131 zM248 338q0 -27 58.5 -83t90.5 -71h4q8 -4 13 -4h372q4 0 13 4h4q37 16 91 69.5t54 84.5v807q0 16 -2 20q-23 35 -70 79t-73 59h-4q-8 4 -13 4h-372q-4 0 -13 -4h-4q-35 -16 -92 -71.5t-57 -86.5v-807z" />
<glyph unicode="P" horiz-adv-x="1316" d="M43 0v1487h698q94 0 166 -51q25 -18 71 -64.5t60 -68.5q43 -63 43 -142v-221q0 -76 -43 -139q-14 -23 -60 -68t-73 -63q-70 -51 -164 -52h-495v-618h-203zM246 813h493q29 0 72 37t61 68q4 4 5 26v215q0 23 -5 29q-14 25 -55 63.5t-63 42.5h-15h-493v-481z" />
<glyph unicode="Q" horiz-adv-x="1435" d="M43 338v811q0 80 37 135q25 35 84 95.5t94 80.5q63 39 143 39h394q78 0 141 -39q35 -20 94.5 -80.5t83.5 -95.5q39 -55 39 -135v-811q0 -80 -39 -135q-20 -35 -79.5 -93.5t-98.5 -78.5q-51 -33 -113 -41l95 -217h-213l-91 215h-213q-70 0 -143 43q-37 20 -96.5 78.5 t-81.5 93.5q-37 55 -37 135zM246 340q0 -25 58 -82t89 -72l8 -2q8 -4 13 -4h116l-22 58l186 61l49 -119h39q6 0 11 4l8 2q37 16 92 69.5t55 84.5v807q0 31 -55 85t-92 71q-6 4 -19 4h-370q-12 0 -19 -4q-37 -16 -92 -70.5t-55 -85.5v-807z" />
<glyph unicode="R" horiz-adv-x="1411" d="M43 0v1487h698q94 0 166 -51q25 -18 71 -64.5t60 -68.5q43 -63 43 -142v-221q0 -76 -43 -139q-14 -23 -60 -68t-71 -63q-59 -46 -105 -46q-6 0 -11 1l366 -625h-221l-354 618h-336v-618h-203zM246 813h493q29 0 74 37t61 68q2 2 3 26v213q0 25 -3 27q-14 25 -56 65.5 t-64 44.5h-15h-493v-481z" />
<glyph unicode="S" horiz-adv-x="1411" d="M10 317l195 52l26 -47q47 -86 142 -138q8 -4 18 -4h395q12 0 15 4q37 16 92 69.5t55 84.5v149q0 31 -17.5 55.5t-37.5 30.5l-684 179q-82 23 -129 94.5t-47 157.5v145q0 82 35 133q23 35 83 94.5t97 79.5q74 43 141 43h375q154 0 305 -201q27 -33 68 -127l-197 -57 l-27 51q-18 37 -63 79t-76 59q-8 4 -18 4h-355q-4 0 -10 -4h-6q-33 -14 -91 -70.5t-58 -83.5v-135q0 -27 16 -50.5t39 -29.5l680 -182q82 -23 132 -93.5t50 -154.5v-170q0 -82 -35 -131q-23 -35 -83 -93.5t-99 -78.5q-74 -43 -141 -43h-410q-158 0 -307 200q-21 27 -68 129z " />
<glyph unicode="T" horiz-adv-x="1247" d="M-25 1294v193h1051v-193h-424v-1294h-203v1294h-424z" />
<glyph unicode="U" horiz-adv-x="1372" d="M45 332v1155h203v-1149q0 -27 59.5 -83t91.5 -71h7q6 -4 10 -4h307q6 0 10 4h8q33 14 89.5 70.5t56.5 83.5v1149h203v-1155q0 -80 -35 -129q-20 -35 -81 -93.5t-97 -78.5q-74 -43 -142 -43h-332q-70 0 -143 43q-37 20 -96.5 78.5t-81.5 93.5q-37 55 -37 129z" />
<glyph unicode="V" horiz-adv-x="1339" d="M-111 1487h215l424 -1270l424 1270h215l-505 -1487h-269z" />
<glyph unicode="W" horiz-adv-x="1902" d="M12 1487h211l260 -1217l275 1217h235l277 -1217l260 1217h209l-342 -1487h-254l-266 1155l-267 -1155h-256z" />
<glyph unicode="X" horiz-adv-x="1253" d="M0 1487h225l318 -551l315 551h225l-430 -744l428 -743h-223l-315 551l-318 -551h-223l426 743z" />
<glyph unicode="Y" horiz-adv-x="1257" d="M-57 1487h223l346 -613q-2 0 85 153l177 306l86 154h221l-469 -817v-670h-202v670z" />
<glyph unicode="Z" horiz-adv-x="1241" d="M43 0v156l717 1138h-717v193h961v-162l-701 -1132h701v-193h-961z" />
<glyph unicode="[" horiz-adv-x="755" d="M20 0v1487h443v-178h-240v-1131h240v-178h-443z" />
<glyph unicode="\" horiz-adv-x="1069" d="M-45 1499h223l815 -1499h-225z" />
<glyph unicode="]" horiz-adv-x="804" d="M119 0v178h239v1131h-239v178h444v-1487h-444z" />
<glyph unicode="^" horiz-adv-x="1075" d="M59 1294l334 295h199l338 -295h-258l-176 160l-179 -160h-258z" />
<glyph unicode="_" horiz-adv-x="1144" d="M8 -37h957v-178h-957v178z" />
<glyph unicode="`" horiz-adv-x="944" d="M109 1577h266l299 -270l-203 -56z" />
<glyph unicode="a" horiz-adv-x="1193" d="M-25 295v47q0 84 41 141q51 68 117 117q70 49 170 49h402v119q0 20 -5 25q-31 57 -106 100q-20 6 -29 6h-233q-47 0 -115 -86l-31 -43l-182 55q23 51 74 115t90 94q70 47 172 47h227q102 0 172 -51q74 -53 119 -117q39 -55 39 -143v-573l21 -197h-195l-10 84 q-113 -96 -193 -96h-217q-100 0 -170 49q-66 49 -117 117q-41 57 -41 141zM168 297q0 -18 6 -25q31 -57 100 -96q23 -8 31 -8h207q14 0 23 6q123 57 170 123v174h-400q-14 0 -31 -6q-63 -37 -100 -100q-6 -6 -6 -25v-43z" />
<glyph unicode="b" horiz-adv-x="1212" d="M16 0l19 199v1288h192v-500q104 94 191 94h194q98 0 168 -51q66 -47 119 -121q43 -57 43 -143v-463q0 -86 -43 -145q-49 -66 -119 -119q-72 -51 -168 -51h-194q-88 0 -197 104l-10 -92h-195zM227 309q23 -31 93.5 -86t105.5 -55h184q6 0 29 8q25 14 57.5 45t46.5 60 q4 4 5 26v453q0 23 -5 28q-39 70 -104 107q-14 4 -29 4h-184q-35 0 -105.5 -53t-93.5 -86v-451z" />
<glyph unicode="c" horiz-adv-x="1181" d="M20 297v473q0 84 39 141q49 68 119 119t172 51h244q100 0 170 -51q43 -29 93 -92.5t73 -114.5l-182 -57q-25 49 -67 91t-81 42h-248q-8 0 -30 -6q-70 -41 -105 -100q-4 -4 -4 -27v-463q0 -23 4 -29q35 -59 105 -98q23 -8 30 -8h254q8 0 31 8q68 35 117 127l180 -59 q-20 -51 -47 -88q-51 -72 -117 -119q-70 -49 -168 -49h-252q-102 0 -172 49q-70 53 -119 119q-39 57 -39 141z" />
<glyph unicode="d" horiz-adv-x="1220" d="M20 303v463q0 86 41 143q55 74 119 121q70 51 170 51h193q86 0 190 -94v500h195v-1288l16 -199h-192l-11 92q-109 -104 -198 -104h-193q-98 0 -170 51q-70 53 -119 119q-41 59 -41 145zM213 307q0 -23 4 -26q16 -29 48 -60t57 -45q23 -8 30 -8h183q35 0 105.5 53t92.5 86 v451q-23 35 -93.5 88t-104.5 53h-183q-14 0 -30 -4q-63 -37 -105 -107q-4 -6 -4 -28v-453z" />
<glyph unicode="e" horiz-adv-x="1196" d="M20 297v473q0 84 41 141q49 68 119 119t172 51h248q100 0 170 -51t119 -119q41 -57 41 -141v-319h-717v-148q0 -23 4 -29q18 -31 60 -68.5t75 -37.5h258q6 0 29 8q25 12 57.5 43t44.5 55l15 29l180 -59q-25 -57 -70 -115.5t-92 -91.5q-70 -49 -170 -49h-252 q-102 0 -172 49q-70 53 -119 119q-41 57 -41 141zM213 629h522v137q0 23 -2 27q-33 57 -106 100q-23 6 -29 6h-246q-33 0 -74.5 -37t-60.5 -69q-4 -4 -4 -27v-137z" />
<glyph unicode="f" horiz-adv-x="841" d="M-25 887v182h177v119q0 86 38 143q49 66 119 119q72 49 172 49h189v-180h-187q-31 0 -37 -6q-25 -14 -62.5 -50t-39.5 -59v-22v-113h191v-182h-191v-887h-192v887h-177z" />
<glyph unicode="g" horiz-adv-x="1251" d="M20 303v463q0 86 39 143q55 74 119 121q70 51 172 51h203q86 0 201 -104l10 92h192l-20 -201v-979q0 -88 -39 -145q-49 -66 -119 -119q-72 -51 -172 -51h-248q-96 0 -168 51q-45 31 -94 92.5t-71 116.5l180 60q23 -47 66.5 -93.5t80.5 -46.5h252q8 0 31 8 q25 14 65.5 53.5t42.5 57.5v21v188q-104 -94 -190 -94h-203q-102 0 -172 49q-63 47 -119 121q-39 57 -39 145zM211 307q0 -23 4 -26q41 -68 107 -107q16 -6 30 -6h193q18 0 22 2q113 57 178 141v445q-33 37 -99 90t-101 53h-193q-8 0 -30 -6q-70 -41 -107 -105q-4 -6 -4 -28 v-453z" />
<glyph unicode="h" horiz-adv-x="1185" d="M16 0v1487h195v-504q106 98 190 98h172q96 0 168 -53q63 -47 119 -121q41 -59 41 -141v-766h-192v760q0 23 -4 28q-41 70 -105 107q-14 4 -31 4h-159q-37 0 -107 -54t-92 -89v-2v-2v-4v-3v-2v-2v-2v-4v-2v-2v-2v-2v-4v-2v-2v-2v-4v-2v-2v-2v-2v-5v-2v-2v-2v-2v-4v-2v-2 v-2v-2v-4v-2v-2v-2v-4v-2v-2v-3v-2v-4v-2v-2v-2v-2v-4v-2v-2v-2v-2v-4v-2v-2v-2v-5v-2v-2v-2v-2v-4v-2v-2v-2v-6v-2v-2v-2v-2v-4v-2v-5v-2v-4v-2v-2v-2v-6v-2v-2v-2v-6v-2v-2v-2v-4v-5v-2v-2v-6v-2v-2v-4v-4v-2v-2v-6v-2v-2v-7v-2v-2v-4v-4v-2v-4v-4v-2v-4v-2v-6v-2v-3v-6 v-2v-4v-2v-4v-4v-2v-6v-2v-4v-4v-5v-2v-6v-2v-2v-4v-4v-4v-2v-6v-2v-5v-4v-4v-4v-4v-4v-2v-6v-2v-4v-2v-7v-4v-4v-4v-2v-6v-2v-4v-6v-2v-4v-7v-2v-4v-4v-4v-4v-4v-4v-4v-4v-4v-5v-4v-4v-6v-2v-4v-6v-2v-4v-6v-5v-2v-6v-4v-2v-6v-4v-6v-2v-4v-7v-4v-2v-6v-4v-6v-2v-4v-6v-5 v-4v-4v-4v-4v-6v-4v-6v-2v-4v-7v-4v-6v-4v-2v-6v-4v-4v-6v-5v-20h-195z" />
<glyph unicode="i" horiz-adv-x="534" d="M27 1288v221h223v-221h-223zM43 0v1069h193v-1069h-193z" />
<glyph unicode="j" horiz-adv-x="557" d="M-248 -244h185q25 0 28 4q66 37 103 107q4 4 4 27v1175h196v-1180q0 -86 -43 -145q-55 -74 -119 -121q-72 -49 -167 -49h-187v182zM59 1288v221h224v-221h-224z" />
<glyph unicode="k" horiz-adv-x="1114" d="M23 0v1487h192v-834h6l418 416h266l-506 -502l557 -567h-272l-461 473h-8v-473h-192z" />
<glyph unicode="l" horiz-adv-x="579" d="M57 162v1325h189v-1297q0 -51 24 -190h-192q-4 12 -7 45t-8 47q-6 41 -6 70z" />
<glyph unicode="m" horiz-adv-x="1779" d="M16 1069h195l10 -90q113 102 193 102h149q6 0 13 1q76 0 133 -48q14 -12 40.5 -49t32.5 -43q33 33 138 100q70 39 127 39h165q59 0 125 -51q70 -51 119 -119q41 -57 41 -141v-770h-194v766q0 23 -5 27q-37 61 -98 100q-10 6 -35 6h-112q-31 0 -97.5 -47t-87.5 -76v-6 v-770h-192v766q0 23 -4 27q-37 66 -103 102q-6 4 -34 4h-113h-19q-61 -4 -176 -139v-760h-192v870z" />
<glyph unicode="n" horiz-adv-x="1212" d="M16 1069h195l10 -88q109 100 193 100h186q100 0 170 -51t119 -119q41 -57 41 -141v-770h-195v766q0 23 -2 27q-35 59 -106 102q-14 4 -29 4h-176q-33 0 -101.5 -49t-89.5 -80v-770h-194v870z" />
<glyph unicode="o" horiz-adv-x="1198" d="M20 297v473q0 84 39 141q49 68 119 119t172 51h248q100 0 170 -51t119 -119q41 -57 41 -141v-473q0 -84 -41 -141q-49 -66 -119 -119q-70 -49 -170 -49h-248q-102 0 -172 49q-70 53 -119 119q-39 57 -39 141zM213 303q0 -23 4 -29q33 -57 109 -98q20 -8 28 -8h240 q8 0 31 8q27 14 66.5 50t41.5 57v20v463q0 23 -2 27q-33 57 -106 100q-23 6 -31 6h-240q-8 0 -28 -6q-76 -43 -109 -100q-4 -10 -4 -27v-463z" />
<glyph unicode="p" horiz-adv-x="1220" d="M16 1069h195l10 -92q109 104 197 104h194q96 0 168 -53q70 -51 119 -119q43 -59 43 -143v-463q0 -88 -43 -145q-53 -74 -119 -121q-70 -49 -168 -49h-194q-86 0 -191 94v-510h-192v1298zM227 309q23 -31 93.5 -86t105.5 -55h184q14 0 29 6q66 37 104 107q4 4 5 26v453 q0 23 -5 28q-14 25 -46.5 57t-57.5 48q-23 6 -29 6h-184q-35 0 -105.5 -53t-93.5 -86v-451z" />
<glyph unicode="q" horiz-adv-x="1208" d="M20 303v463q0 84 41 143q49 68 119 119q72 53 170 53h193q90 0 198 -104l11 92h192l-16 -199v-1298h-195v510q-104 -94 -190 -94h-193q-100 0 -170 49q-63 47 -119 121q-41 57 -41 145zM213 307q0 -23 4 -26q41 -70 105 -107q16 -6 30 -6h183q35 0 105.5 53t92.5 86v451 q-23 33 -93.5 87t-104.5 54h-183q-8 0 -30 -6q-25 -16 -57 -48t-48 -57q-4 -6 -4 -28v-453z" />
<glyph unicode="r" horiz-adv-x="1030" d="M16 1069h195l10 -88q104 100 195 100h137q98 0 168 -51q45 -29 94 -92.5t72 -114.5l-180 -57q-25 49 -67 91t-83 42h-133q-35 0 -104.5 -50t-92.5 -83v-766h-192v870z" />
<glyph unicode="s" horiz-adv-x="1161" d="M-35 244l187 61q49 -96 116 -131q10 -6 29 -6h301q29 0 68 34t57 66q6 4 6 27v84q0 23 -18.5 39t-48.5 18l-412 27q-100 8 -171 77.5t-71 166.5v71q0 82 41 142q47 70 109 110q74 51 170 51h258q96 0 168 -51q98 -70 170 -205l-185 -61q-29 49 -70.5 92t-76.5 43h-264 q-20 0 -31 -4q-57 -27 -94 -94q-2 -2 -2 -27v-69q0 -23 17.5 -39.5t45.5 -18.5l412 -31q102 -6 174 -75.5t72 -165.5v-84q0 -78 -45 -141q-47 -70 -109 -113q-72 -49 -168 -49h-297q-98 0 -170 49q-96 68 -168 207z" />
<glyph unicode="t" horiz-adv-x="845" d="M-68 887v182h177v418h194v-418h326v-182h-326v-568q0 -27 4 -32q37 -61 99 -99q16 -8 34 -8h187v-180h-189q-98 0 -168 49q-66 47 -118 121q-43 61 -43 145v572h-177z" />
<glyph unicode="u" horiz-adv-x="1208" d="M20 299v770h193v-764q0 -23 2 -26q35 -61 107 -103q16 -6 30 -6h176q31 0 99.5 49t91.5 78v772h192v-870l21 -199h-193l-10 86q-106 -96 -194 -96h-185q-102 0 -172 49q-70 53 -119 119q-39 57 -39 141z" />
<glyph unicode="v" horiz-adv-x="1103" d="M-80 1069h209l277 -842l278 842h205l-367 -1069h-229z" />
<glyph unicode="w" horiz-adv-x="1658" d="M-86 1069h205l237 -831l230 831h235l238 -831l227 831h203l-318 -1069h-229l-242 788l-229 -788h-231z" />
<glyph unicode="x" horiz-adv-x="1112" d="M-86 0l373 547l-361 522h236l239 -371l234 371h235l-354 -522l373 -547h-230l-258 387l-258 -387h-229z" />
<glyph unicode="y" horiz-adv-x="1064" d="M-80 1069h209l277 -831l278 831h199l-492 -1497h-211l146 428h-39z" />
<glyph unicode="z" horiz-adv-x="1099" d="M0 887v182h829v-156l-550 -733h579v-180h-838v152l553 735h-573z" />
<glyph unicode="{" horiz-adv-x="864" d="M23 338v811q0 82 34 133q25 37 83.5 96.5t92.5 77.5q74 43 144 43h166v-192h-154q-4 0 -12 -4h-4q-29 -14 -76 -58.5t-70 -79.5q-2 -4 -2 -20v-805q0 -31 54.5 -84t93.5 -70l4 -2h12h154v-194h-166q-68 0 -141 43q-37 23 -97.5 80t-83.5 92q-32 47 -32 133z" />
<glyph unicode="|" horiz-adv-x="464" d="M37 -233v1929h190v-1929h-190z" />
<glyph unicode="}" horiz-adv-x="886" d="M119 -10v194h153h11l8 2q31 14 89 71.5t58 82.5v805q0 31 -56 86t-91 72h-8q-4 4 -11 4h-153v192h166q70 0 143 -43q35 -18 94.5 -78.5t83.5 -95.5q35 -51 35 -133v-811q0 -82 -35 -133q-20 -35 -81.5 -92.5t-98.5 -79.5q-74 -43 -141 -43h-166z" />
<glyph unicode="~" horiz-adv-x="1144" d="M55 1485l183 35q22 -55 72 -56q9 0 20 2l178 33q34 7 67 7q65 0 123 -27q88 -41 125 -133l-184 -35q-22 55 -72 55q-9 0 -20 -2l-178 -33q-33 -7 -66 -7q-64 0 -123 28q-88 41 -125 133z" />
<glyph unicode="&#xa2;" horiz-adv-x="1140" />
<glyph unicode="&#xa3;" horiz-adv-x="1468" />
<glyph unicode="&#xa5;" horiz-adv-x="1204" />
<glyph unicode="&#xa8;" horiz-adv-x="899" />
<glyph unicode="&#xa9;" horiz-adv-x="1599" />
<glyph unicode="&#xab;" horiz-adv-x="1482" />
<glyph unicode="&#xad;" horiz-adv-x="802" />
<glyph unicode="&#xae;" horiz-adv-x="1609" />
<glyph unicode="&#xb4;" horiz-adv-x="917" d="M199 1307l299 270h266l-363 -326z" />
<glyph unicode="&#xb8;" horiz-adv-x="1005" />
<glyph unicode="&#xbb;" horiz-adv-x="1488" />
<glyph unicode="&#x2c6;" horiz-adv-x="1050" />
<glyph unicode="&#x2dc;" horiz-adv-x="1144" />
<glyph unicode="&#x2000;" horiz-adv-x="850" />
<glyph unicode="&#x2001;" horiz-adv-x="1700" />
<glyph unicode="&#x2002;" horiz-adv-x="850" />
<glyph unicode="&#x2003;" horiz-adv-x="1700" />
<glyph unicode="&#x2004;" horiz-adv-x="566" />
<glyph unicode="&#x2005;" horiz-adv-x="425" />
<glyph unicode="&#x2006;" horiz-adv-x="283" />
<glyph unicode="&#x2007;" horiz-adv-x="283" />
<glyph unicode="&#x2008;" horiz-adv-x="212" />
<glyph unicode="&#x2009;" horiz-adv-x="340" />
<glyph unicode="&#x200a;" horiz-adv-x="94" />
<glyph unicode="&#x2010;" horiz-adv-x="802" d="M20 526v181h515v-181h-515z" />
<glyph unicode="&#x2011;" horiz-adv-x="802" d="M20 526v181h515v-181h-515z" />
<glyph unicode="&#x2012;" horiz-adv-x="802" d="M20 526v181h515v-181h-515z" />
<glyph unicode="&#x2013;" horiz-adv-x="1150" />
<glyph unicode="&#x2014;" horiz-adv-x="1353" />
<glyph unicode="&#x2018;" horiz-adv-x="561" />
<glyph unicode="&#x2019;" horiz-adv-x="561" />
<glyph unicode="&#x201a;" horiz-adv-x="561" />
<glyph unicode="&#x201c;" horiz-adv-x="946" />
<glyph unicode="&#x201d;" horiz-adv-x="964" />
<glyph unicode="&#x201e;" horiz-adv-x="964" />
<glyph unicode="&#x2022;" horiz-adv-x="1097" />
<glyph unicode="&#x2026;" horiz-adv-x="1699" />
<glyph unicode="&#x202f;" horiz-adv-x="340" />
<glyph unicode="&#x2039;" horiz-adv-x="991" />
<glyph unicode="&#x203a;" horiz-adv-x="991" />
<glyph unicode="&#x205f;" horiz-adv-x="425" />
<glyph unicode="&#x20ac;" horiz-adv-x="1443" />
<glyph unicode="&#x2122;" horiz-adv-x="1527" />
<glyph unicode="&#x25fc;" horiz-adv-x="1070" d="M0 0v1070h1070v-1070h-1070z" />
</font>
</defs>
</svg>
