<?xml version="1.0" encoding="utf-8"?>
<!-- Generator: Adobe Illustrator 18.0.0, SVG Export Plug-In . SVG Version: 6.00 Build 0)  -->
<!DOCTYPE svg PUBLIC "-//W3C//DTD SVG 1.1//EN" "http://www.w3.org/Graphics/SVG/1.1/DTD/svg11.dtd">
<svg version="1.1" id="Layer_1" xmlns="http://www.w3.org/2000/svg" xmlns:xlink="http://www.w3.org/1999/xlink" x="0px" y="0px"
	 viewBox="0 0 1226 62" enable-background="new 0 0 1226 62" xml:space="preserve">
<g>
	<defs>
		<rect id="SVGID_1_" y="0" width="1226" height="62"/>
	</defs>
	<clipPath id="SVGID_2_">
		<use xlink:href="#SVGID_1_"  overflow="visible"/>
	</clipPath>
	<g clip-path="url(#SVGID_2_)">
		<g>
			<path fill="#235999" d="M339,9.9c0.4,0.4,0.7,0.7,1.1,1.1c5.9,5.8,11,12.4,15.4,19.6C384.1,16.1,406.4,12,406.4,12
				c6,2.6,11.8,5.8,17,9.6c0.1,0,0.1,0.1,0.2,0.1c0.8,0.6,1.6,1.2,2.4,1.7c0,0,0,0,0,0c0,0,0,0,0,0c0.5,0.4,0.9,0.7,1.4,1.1
				C411.6,12.1,391.7,4.6,370,4.6C359.1,4.6,348.7,6.5,339,9.9z"/>
			<path fill="#0D6269" d="M427.3,24.6c2.8,2.2,5.5,4.6,8,7.2C432.8,29.2,430.1,26.8,427.3,24.6z"/>
			<path fill="#235999" d="M435.4,31.8c1.9,1.9,3.7,3.9,5.4,6c0,0-24.6,5.6-52.4,24.2h66.8c-0.6-1.4-1.1-2.8-1.8-4.2
				C448.9,48.1,442.8,39.3,435.4,31.8z"/>
			<path fill="#3E9AD8" d="M435.4,31.8C435.4,31.8,435.3,31.8,435.4,31.8c-2.6-2.6-5.2-5-8-7.2c0,0,0,0,0,0
				c-0.5-0.4-0.9-0.7-1.4-1.1c-4.5,1.4-10.1,3.4-16.6,6.2l1.3,1.4l-2.7,0.9l-1.1-1.2c-2.8,1.3-5.8,2.7-8.9,4.2l0.7,0.7l-2.5,1.8
				l-0.9-1.1c-2.8,1.4-5.7,3-8.7,4.7l1,1.1l-2.9,1.8l-1-1.3c-2.9,1.7-6,3.5-9.1,5.4l1.2,1.6l-3.1,1.6l-1-1.4
				c-1.9,1.2-3.9,2.5-5.8,3.8c0.8,2.7,1.5,5.5,2.1,8.3h20.6c27.9-18.6,52.4-24.2,52.4-24.2C439.1,35.7,437.3,33.7,435.4,31.8z"/>
			<path fill="#3E9AD8" d="M366.9,43.6l3.1-1.4l1,1.4c3.1-1.9,6.1-3.7,9-5.3l-0.8-1l2.2-1.6l1.1,1.2c3.1-1.7,6.2-3.3,9.1-4.8
				l-0.9-1.1l2.7-0.9l0.7,0.7c3.2-1.5,6.2-2.9,9-4.2l-1.1-1.2l2.2-1.3l1.3,1.4c5.8-2.5,10.9-4.3,15.3-5.8c0.9,0.6,1.7,1.1,2.5,1.7
				c-5.3-3.8-11-7-17-9.6c0,0-22.2,4-50.9,18.6c3.3,5.5,6.1,11.4,8.4,17.5c1.5-1,2.9-1.9,4.4-2.8L366.9,43.6z"/>
			<path fill="#B6D1EE" d="M423.6,21.7c0.8,0.6,1.6,1.2,2.4,1.7C425.1,22.9,424.4,22.3,423.6,21.7z"/>
			<path fill="#B6D1EE" d="M425.9,23.5c-0.8-0.6-1.6-1.2-2.4-1.7c-0.1,0-0.1-0.1-0.2-0.1c-0.8-0.6-1.7-1.2-2.5-1.7
				c-4.4,1.4-9.5,3.3-15.3,5.8l3.7,4C415.9,26.8,421.4,24.9,425.9,23.5L425.9,23.5C425.9,23.5,425.9,23.5,425.9,23.5z"/>
			<path fill="#B6D1EE" d="M394.2,30.9l3.7,4.1c3.1-1.6,6.1-3,8.9-4.2l-3.6-4.1C400.4,27.9,397.3,29.3,394.2,30.9z"/>
			<path fill="#B6D1EE" d="M371,43.6l3.3,4.5c3.2-1.9,6.2-3.8,9.1-5.4l-3.4-4.4C377.2,39.9,374.2,41.7,371,43.6z"/>
			<path fill="#B6D1EE" d="M382.6,36.9l3.8,4.2c3-1.7,5.9-3.3,8.7-4.7l-3.4-4.3C388.8,33.6,385.7,35.2,382.6,36.9z"/>
			<path fill="#B6D1EE" d="M363.8,48.1c0.7,1.8,1.3,3.7,1.9,5.6c2-1.3,3.9-2.6,5.8-3.8l-3.3-4.6C366.8,46.2,365.3,47.2,363.8,48.1z"
				/>
			<path fill="#1D4A89" d="M205.4,17.7C222.8,9.7,238.7,4,252.6,0h-37.8c-4.8,3.4-9.4,7.2-13.5,11.4
				C202.7,13.4,204.1,15.6,205.4,17.7z"/>
			<path fill="#1D4A89" d="M363.8,48.1c-2.2-6.1-5.1-12-8.4-17.5c-4.3-7.2-9.5-13.7-15.4-19.6c4.5,4.7,8.6,9.8,12.2,15.3
				c0,0-43.5-19.2-120.3,35.6h135.8c-0.6-2.8-1.3-5.6-2.1-8.3C365.1,51.8,364.5,49.9,363.8,48.1z"/>
			<path fill="#3E9AD8" d="M214.1,35.6c0.7-0.4,1.4-0.8,2.1-1.2l-0.9-1.5l1.4-1.2l1.2,1.8c3-1.6,6-3.2,8.9-4.7l-0.8-1.4l2.2-1.2
				l0.9,1.6c3.4-1.6,6.8-3.2,10.1-4.6l-0.9-1.5l1.9-1l0.9,1.6c2.9-1.2,5.9-2.4,8.7-3.5l-0.8-1.5l1.7-1.4l1.2,2.1
				c2.8-1,5.5-2,8.2-2.9l-0.8-1.5l1.2-1.7l1.4,2.5c2.8-0.9,5.6-1.7,8.3-2.5l-1.9-3.3l1.6-1.3l2.3,4c2.8-0.8,5.5-1.5,8.1-2.1l-0.9-2
				l1.7-0.8l1.1,2.4c2.9-0.7,5.7-1.3,8.4-1.8l-0.9-2.6h1.8l0.7,2.3c2.7-0.5,5.2-0.9,7.7-1.3l-0.3-1l1.4-0.6l0.4,1.4
				c3-0.4,5.7-0.8,8.4-1.1l-0.7-3.1h1.6l0.7,2.9c2.8-0.3,5.4-0.5,7.8-0.6l-0.3-1.6h1.4l0.2,1.5c2.8-0.2,5.3-0.2,7.3-0.3l-0.4-1.2
				l1.6,0.7l0.1,0.5c0.9,0,1.7,0,2.4,0c0.8,0.6,1.5,1.3,2.3,1.9c-2-1.8-4.2-3.5-6.3-5.1h-74.8c-13.9,4-29.9,9.7-47.3,17.7
				C208.7,23.4,211.6,29.4,214.1,35.6z"/>
			<path fill="#3E9AD8" d="M352.3,26.4c-3.6-5.5-7.7-10.6-12.2-15.3c-0.4-0.4-0.7-0.7-1.1-1.1c-1.7-1.7-3.4-3.3-5.2-4.8
				c0.8,0.7,1.5,1.3,2.2,2c-1.1-0.1-3.1-0.3-6-0.4l0.2,0.8h-1.3l-0.2-0.8c-2.2-0.1-4.8,0-7.9,0.1l0.1,0.7h-1.3l-0.1-0.7
				c-2.3,0.1-4.9,0.3-7.7,0.5l0.3,1.2h-1.7l-0.2-1.1c-2.5,0.3-5.3,0.6-8.1,1l1,3.4h-1.7l-0.9-3.2c-2.4,0.4-5,0.8-7.6,1.3l0.8,2.5
				l-1.7-0.6l-0.6-1.6c-2.6,0.5-5.3,1.1-8,1.8l1.2,2.6h-2l-1-2.1c-2.5,0.6-5.1,1.3-7.8,2.1l1,1.7h-2.1l-0.7-1.2
				c-2.7,0.8-5.5,1.7-8.4,2.7l1.2,2.2l-1.9,0.6l-1.1-2.2c-2.6,0.9-5.3,1.9-8.1,2.9l1.5,2.8h-2.4l-1.1-2.1c-2.8,1.1-5.7,2.3-8.6,3.6
				l3.5,5.9l-4.5-3.8l-0.8-1.3c-3.4,1.5-6.8,3.1-10.3,4.8l1.5,2.7h-2.6l-0.9-1.6c-2.8,1.4-5.7,3-8.6,4.6l1.1,1.7l-1.9,1.1l-1.1-1.8
				c-0.9,0.5-1.9,1.1-2.9,1.6c2.6,7.2,4.6,14.6,5.9,22.3H232C308.8,7.1,352.3,26.4,352.3,26.4z"/>
			<path fill="#B6D1EE" d="M331.5,3.2c-0.7,0-1.5,0-2.4,0l0.9,3.6c2.9,0.1,4.9,0.3,6,0.4c-0.7-0.7-1.5-1.4-2.2-2c0,0,0,0,0,0
				C333.1,4.4,332.3,3.8,331.5,3.2z"/>
			<path fill="#B6D1EE" d="M311.3,4.2l0.7,3.2c2.8-0.3,5.3-0.4,7.7-0.5l-0.6-3.3C316.7,3.7,314.1,3.9,311.3,4.2z"/>
			<path fill="#B6D1EE" d="M272.2,11.5l1.7,3.1c2.7-0.8,5.3-1.5,7.8-2.1l-1.4-3.1C277.6,10.1,274.9,10.8,272.2,11.5z"/>
			<path fill="#B6D1EE" d="M251.9,18l1.8,3.4c2.7-1.1,5.4-2,8.1-2.9l-1.7-3.3C257.4,16.1,254.7,17,251.9,18z"/>
			<path fill="#B6D1EE" d="M261.9,14.6l1.7,3.2c2.9-1,5.7-1.9,8.4-2.7l-1.8-3.1C267.5,12.8,264.8,13.7,261.9,14.6z"/>
			<path fill="#B6D1EE" d="M282.1,9l1.4,3.1c2.8-0.7,5.5-1.3,8-1.8l-1.1-3.1C287.8,7.8,285,8.4,282.1,9z"/>
			<path fill="#B6D1EE" d="M320.5,3.4l0.5,3.3c3-0.1,5.7-0.1,7.9-0.1l-1-3.5C325.7,3.2,323.3,3.3,320.5,3.4z"/>
			<path fill="#B6D1EE" d="M301.3,5.4l0.9,3.1c2.9-0.4,5.6-0.7,8.1-1l-0.7-3.2C307.1,4.6,304.3,5,301.3,5.4z"/>
			<path fill="#B6D1EE" d="M292.1,6.9l1,3.1c2.6-0.5,5.2-0.9,7.6-1.3l-0.9-3.1C297.3,6,294.7,6.4,292.1,6.9z"/>
			<path fill="#B6D1EE" d="M229.1,27.7l2,3.7c3.5-1.7,6.9-3.3,10.3-4.8l-2.1-3.5C235.9,24.6,232.5,26.1,229.1,27.7z"/>
			<path fill="#B6D1EE" d="M241.2,22.3l2,3.5c2.9-1.3,5.8-2.5,8.6-3.6l-1.9-3.4C247,19.9,244.1,21,241.2,22.3z"/>
			<path fill="#B6D1EE" d="M214.1,35.6c0.5,1.4,1.1,2.7,1.6,4.1c1-0.5,1.9-1.1,2.9-1.6l-2.3-3.7C215.5,34.8,214.8,35.2,214.1,35.6z"
				/>
			<path fill="#B6D1EE" d="M218,33.5l2.4,3.6c2.9-1.6,5.8-3.1,8.6-4.6l-2.1-3.7C223.9,30.3,221,31.8,218,33.5z"/>
			<path fill="#235999" d="M0,0v62h21.2C31.7,35.5,45.5,15.3,59.5,0H0z"/>
			<path fill="#235999" d="M214.1,35.6c-2.5-6.2-5.4-12.2-8.8-17.9c-1.3-2.2-2.6-4.3-4-6.4c-2.6-3.9-5.5-7.7-8.5-11.4h-38.2
				c-14.5,13.7-33.4,35-46.7,62h113.6c-1.3-7.7-3.3-15.1-5.9-22.3C215.2,38.3,214.7,37,214.1,35.6z"/>
			<path fill="#3E9AD8" d="M53.2,61.7c4-7.3,8.2-14.1,12.4-20.4l-1.9-0.8l1.9-3.3l2.2,0.8c4-5.8,8-11.2,12-16.2l-2.2-0.9l1-3.8
				l3.9,1.5c3.9-4.7,7.7-9,11.6-13l-2.1-1V0.8L96.6,3c1-1,2-2,3-3H59.5C45.5,15.3,31.7,35.5,21.2,62h23.3v-4.2L53.2,61.7z"/>
			<path fill="#3E9AD8" d="M154.6,0h-47.4c-1.7,1.8-3.3,3.6-5,5.5l3.2,1.5l-3.1,2.4l-2.5-1.2c-3.4,3.9-6.9,8.2-10.4,12.9l2.6,1
				l-2.6,3.4l-2.5-1c-3.7,5-7.6,10.5-11.5,16.4l2.2,0.8l-2.9,3.4l-1.7-0.7C69.6,49.9,66,55.8,62.3,62H108
				C121.2,35,140.1,13.7,154.6,0z"/>
			<path fill="#B6D1EE" d="M65.6,41.3c-4.2,6.3-8.3,13.1-12.4,20.4l0.6,0.3h8.5c3.6-6.3,7.2-12.1,10.8-17.6L65.6,41.3z"/>
			<path fill="#B6D1EE" d="M96.6,3l5.5,2.6c1.7-1.9,3.4-3.8,5-5.5h-7.6C98.6,1,97.6,1.9,96.6,3z"/>
			<path fill="#B6D1EE" d="M67.8,38l7.6,2.9c3.9-5.9,7.7-11.4,11.5-16.4l-7-2.7C75.8,26.8,71.8,32.2,67.8,38z"/>
			<path fill="#B6D1EE" d="M82.5,18.5l6.9,2.6c3.6-4.7,7-8.9,10.4-12.9l-5.7-2.7C90.2,9.6,86.4,13.9,82.5,18.5z"/>
			<polygon fill="#3E9AD8" stroke="#3E9AD8" stroke-miterlimit="10" points="44.6,57.8 44.6,62 53.8,62 53.2,61.7 			"/>
			<polygon fill="#3E9AD8" stroke="#3E9AD8" stroke-miterlimit="10" points="65.7,37.2 63.7,40.5 65.6,41.3 73.1,44.4 74.8,45.1 
				77.6,41.7 75.4,40.9 67.8,38 			"/>
			<polygon fill="#3E9AD8" stroke="#3E9AD8" stroke-miterlimit="10" points="78.6,17.1 77.6,20.9 79.9,21.8 86.9,24.5 89.4,25.5 
				92,22.1 89.4,21.1 82.5,18.5 			"/>
			<polygon fill="#3E9AD8" stroke="#3E9AD8" stroke-miterlimit="10" points="92,0.8 92,4.6 94.1,5.6 99.8,8.3 102.3,9.4 105.4,7 
				102.2,5.5 96.6,3 			"/>
			<polygon fill="#3E9AD8" stroke="#3E9AD8" stroke-miterlimit="10" points="228.2,26.2 226.1,27.4 226.9,28.8 229,32.5 229.9,34.1 
				232.6,34.1 231.1,31.4 229.1,27.7 			"/>
			<polygon fill="#3E9AD8" stroke="#3E9AD8" stroke-miterlimit="10" points="240.2,20.7 238.3,21.6 239.2,23.1 241.4,26.6 
				242.1,27.9 246.7,31.7 243.2,25.8 241.2,22.3 			"/>
			<polygon fill="#3E9AD8" stroke="#3E9AD8" stroke-miterlimit="10" points="250.8,15.9 249.1,17.3 249.9,18.8 251.8,22.2 
				252.9,24.3 255.3,24.3 253.8,21.4 251.9,18 			"/>
			<polygon fill="#3E9AD8" stroke="#3E9AD8" stroke-miterlimit="10" points="216.7,31.7 215.3,32.9 216.3,34.4 218.5,38.1 
				219.6,39.8 221.5,38.7 220.4,37 218,33.5 			"/>
			<polygon fill="#3E9AD8" stroke="#3E9AD8" stroke-miterlimit="10" points="260.6,12 259.4,13.7 260.1,15.2 261.8,18.5 263,20.7 
				264.9,20.1 263.7,17.8 261.9,14.6 			"/>
			<polygon fill="#3E9AD8" stroke="#3E9AD8" stroke-miterlimit="10" points="269.9,7.5 268.4,8.8 270.3,12.1 272.1,15.2 272.8,16.4 
				274.9,16.4 273.9,14.6 272.2,11.5 			"/>
			<polygon fill="#3E9AD8" stroke="#3E9AD8" stroke-miterlimit="10" points="281,6.7 279.4,7.5 280.3,9.5 281.7,12.5 282.7,14.7 
				284.8,14.7 283.6,12.1 282.1,9 			"/>
			<polygon fill="#3E9AD8" stroke="#3E9AD8" stroke-miterlimit="10" points="291.3,4.6 289.5,4.6 290.5,7.2 291.6,10.3 292.2,11.9 
				293.9,12.5 293.1,10 292.1,6.9 			"/>
			<polygon fill="#3E9AD8" stroke="#3E9AD8" stroke-miterlimit="10" points="300.9,4 299.5,4.6 299.8,5.6 300.7,8.7 301.6,11.9 
				303.3,11.9 302.3,8.5 301.3,5.4 			"/>
			<polygon fill="#3E9AD8" stroke="#3E9AD8" stroke-miterlimit="10" points="310.6,1.3 309.1,1.3 309.7,4.3 310.4,7.5 310.6,8.6 
				312.3,8.6 312,7.3 311.3,4.2 			"/>
			<polygon fill="#3E9AD8" stroke="#3E9AD8" stroke-miterlimit="10" points="320.3,1.9 318.8,1.9 319.1,3.5 319.7,6.8 319.8,7.5 
				321.1,7.5 321,6.8 320.5,3.4 			"/>
			<polygon fill="#3E9AD8" stroke="#3E9AD8" stroke-miterlimit="10" points="329.1,2.7 327.4,1.9 327.8,3.2 328.8,6.7 329.1,7.5 
				330.3,7.5 330.1,6.7 329.2,3.2 			"/>
			<polygon fill="#3E9AD8" stroke="#3E9AD8" stroke-miterlimit="10" points="370,42.2 366.9,43.6 368.2,45.3 371.5,49.9 372.5,51.3 
				375.6,49.7 374.4,48.1 371,43.6 			"/>
			<polygon fill="#3E9AD8" stroke="#3E9AD8" stroke-miterlimit="10" points="381.5,35.7 379.3,37.3 380.1,38.3 383.5,42.7 384.5,44 
				387.4,42.2 386.4,41 382.6,36.9 			"/>
			<polygon fill="#3E9AD8" stroke="#3E9AD8" stroke-miterlimit="10" points="393.5,30.1 390.8,31 391.7,32.1 395.1,36.4 396,37.5 
				398.6,35.7 397.9,35 394.2,30.9 			"/>
			<polygon fill="#3E9AD8" stroke="#3E9AD8" stroke-miterlimit="10" points="404.3,24.2 402.1,25.5 403.2,26.7 406.8,30.7 
				407.9,31.9 410.6,31 409.3,29.7 405.6,25.6 			"/>
		</g>
		<g>
			<polygon opacity="0.15" fill="#69AEF9" points="1226,-126.3 1116.4,-178.8 1098,62 1226,62 			"/>
			<polygon opacity="0.15" fill="#69AEF9" points="1226,-56.4 894.8,-139.1 1060.4,62 1226,62 			"/>
			<polygon opacity="0.15" fill="#69AEF9" points="1226,-21.3 719.3,-77.6 981.5,62 1226,62 			"/>
			<polygon opacity="0.15" fill="#69AEF9" points="1226,-1.7 605.8,-0.3 824.3,62 1226,62 			"/>
			<polygon opacity="0.15" fill="#69AEF9" points="1226,9.5 764.5,62 1226,62 			"/>
			<polygon opacity="0.15" fill="#69AEF9" points="1226,-50.9 1109.5,62 1226,62 			"/>
		</g>
	</g>
</g>
</svg>
